<svg xmlns="http://www.w3.org/2000/svg" viewBox="0 0 512 512">
  <rect width="100%" height="100%" fill="#e6ffe6"/>
  <circle cx="256" cy="256" r="128" fill="#fffff0"/>
  <path d="M 256 160 L 256 352" stroke="#4CAF50" stroke-width="40"/>
  <path d="M 200 200 L 312 200" stroke="#4CAF50" stroke-width="32"/>
  <path d="M 200 312 L 312 312" stroke="#4CAF50" stroke-width="32"/>
  <path d="M 256 160 C 200 160 176 208 176 256 C 176 304 200 352 256 352 C 312 352 336 304 336 256 C 336 208 312 160 256 160" fill="#4CAF50"/>
  <g>
    <path d="M 128 128 L 96 96" stroke="#2E7D32" stroke-width="4"/>
    <path d="M 384 128 L 416 96" stroke="#2E7D32" stroke-width="4"/>
    <path d="M 128 384 L 96 416" stroke="#2E7D32" stroke-width="4"/>
    <path d="M 384 384 L 416 416" stroke="#2E7D32" stroke-width="4"/>
    <path d="M 64 256 L 32 256" stroke="#2E7D32" stroke-width="4"/>
    <path d="M 480 256 L 448 256" stroke="#2E7D32" stroke-width="4"/>
    <path d="M 256 64 L 256 32" stroke="#2E7D32" stroke-width="4"/>
    <path d="M 256 480 L 256 448" stroke="#2E7D32" stroke-width="4"/>
    <path d="M 176 176 L 144 144" stroke="#2E7D32" stroke-width="4"/>
    <path d="M 336 176 L 368 144" stroke="#2E7D32" stroke-width="4"/>
    <path d="M 176 336 L 144 368" stroke="#2E7D32" stroke-width="4"/>
    <path d="M 336 336 L 368 368" stroke="#2E7D32" stroke-width="4"/>
  </g>
</svg>
