<?xml version="1.0" encoding="UTF-8"?>
<svg width="512" height="512" viewBox="0 0 512 512" xmlns="http://www.w3.org/2000/svg">
  <rect width="100%" height="100%" fill="#e6ffe6"/>
  <g transform="translate(128,128) scale(0.5,0.5)">
    <path d="M 256 0 C 256 0 256 0 256 0 L 256 512 C 256 512 256 512 256 512 L 256 0 Z" fill="#4CAF50"/>
    <path d="M 384 128 C 384 128 384 128 384 128 C 384 198.692 326.692 256 256 256 C 185.308 256 128 198.692 128 128 C 128 128 128 128 128 128 L 384 128 Z" fill="#4CAF50"/>
    <path d="M 384 384 C 384 384 384 384 384 384 C 384 313.308 326.692 256 256 256 C 185.308 256 128 313.308 128 384 C 128 384 128 384 128 384 L 384 384 Z" fill="#4CAF50"/>
    <path d="M 256 64 L 256 448" stroke="#4CAF50" stroke-width="32"/>
  </g>
  <circle cx="256" cy="256" r="200" fill="none" stroke="#4CAF50" stroke-width="24"/>
  <path d="M 256 56 L 256 456" stroke="#4CAF50" stroke-width="24"/>
  <path d="M 200 120 L 312 120" stroke="#4CAF50" stroke-width="24"/>
  <path d="M 200 392 L 312 392" stroke="#4CAF50" stroke-width="24"/>
</svg>
